<svg viewBox="70 18 260 260" xmlns="http://www.w3.org/2000/svg">
  <!-- 花びら -->
  <g fill="#ffc93c" stroke="#e8a91a" stroke-width="2">
    <ellipse cx="200" cy="78"  rx="24" ry="38"/>
    <ellipse cx="253" cy="98"  rx="24" ry="38" transform="rotate(50 253 98)"/>
    <ellipse cx="272" cy="150" rx="24" ry="38" transform="rotate(95 272 150)"/>
    <ellipse cx="248" cy="200" rx="24" ry="38" transform="rotate(135 248 200)"/>
    <ellipse cx="200" cy="219" rx="24" ry="38" transform="rotate(180 200 219)"/>
    <ellipse cx="152" cy="200" rx="24" ry="38" transform="rotate(225 152 200)"/>
    <ellipse cx="128" cy="150" rx="24" ry="38" transform="rotate(265 128 150)"/>
    <ellipse cx="147" cy="98"  rx="24" ry="38" transform="rotate(310 147 98)"/>
  </g>
  <!-- 顔 -->
  <circle cx="200" cy="148" r="52" fill="#fff6e0" stroke="#e8d9b0" stroke-width="2"/>
  <!-- サングラス -->
  <g fill="#111">
    <rect x="158" y="128" width="38" height="24" rx="9"/>
    <rect x="204" y="128" width="38" height="24" rx="9"/>
    <rect x="193" y="136" width="14" height="5" rx="2"/>
    <rect x="150" y="134" width="10" height="5" rx="2"/>
    <rect x="240" y="134" width="10" height="5" rx="2"/>
  </g>
  <rect x="163" y="132" width="10" height="4" rx="2" fill="#4dd7ff" opacity="0.85"/>
  <rect x="209" y="132" width="10" height="4" rx="2" fill="#4dd7ff" opacity="0.85"/>
  <!-- 口 -->
  <path d="M184 168 Q200 180 216 168" stroke="#c2452f" stroke-width="4.5" fill="none" stroke-linecap="round"/>
</svg>
